<svg width="350" height="58" viewBox="0 0 350 58" fill="none" xmlns="http://www.w3.org/2000/svg">
<g clip-path="url(#clip0_34_5)">
<path d="M14.7912 57.9975C14.1222 57.771 -17.2952 46.9181 13.5113 19.6602V27.4749C13.5343 32.0349 12.2562 36.504 9.8317 40.3418C4.67829 48.3953 8.27549 53.4205 11.4582 55.9638H11.4727C12.4172 56.8085 13.5024 57.4755 14.6773 57.9335L14.7912 57.9975Z" fill="url(#paint0_linear_34_5)"/>
<path d="M37.7731 17.9195C38.9683 16.7055 39.9164 15.2641 40.5632 13.6778C41.2099 12.0915 41.5427 10.3913 41.5424 8.67436C41.543 7.95813 41.4045 7.2488 41.1349 6.58699C40.8653 5.92518 40.4698 5.32389 39.9711 4.81755C39.4723 4.31121 38.8802 3.90976 38.2285 3.63619C37.5768 3.36262 36.8784 3.22231 36.1732 3.22328H18.8804C18.1747 3.22166 17.4755 3.36146 16.823 3.63468C16.1704 3.9079 15.5774 4.30917 15.0778 4.81551C14.5781 5.32185 14.1817 5.92332 13.9113 6.58548C13.6408 7.24764 13.5016 7.95748 13.5016 8.67436V27.4749C13.5246 32.0349 12.2465 36.504 9.82199 40.3419C1.95128 52.6523 14.4906 57.8769 14.7912 58C4.25892 52.022 13.5016 42.5627 13.5016 42.5627L37.7731 17.9195ZM24.1672 5.97098H30.7629C30.9769 5.97098 31.1823 6.05736 31.3336 6.21112C31.485 6.36487 31.5701 6.57341 31.5701 6.79086C31.5701 7.0083 31.485 7.21684 31.3336 7.3706C31.1823 7.52436 30.9769 7.61074 30.7629 7.61074H24.1672C23.9535 7.60945 23.7489 7.52265 23.5978 7.36917C23.4467 7.21569 23.3613 7.0079 23.36 6.79086C23.36 6.57341 23.445 6.36487 23.5964 6.21112C23.7478 6.05736 23.9531 5.97098 24.1672 5.97098Z" fill="url(#paint1_linear_34_5)"/>
<path style="mix-blend-mode:multiply" d="M13.5016 19.6602V42.5577L37.7731 17.9195C38.9684 16.7055 39.9165 15.2641 40.5632 13.6778C41.21 12.0915 41.5427 10.3913 41.5424 8.67435C41.5418 7.22841 40.9758 5.84191 39.969 4.8197C38.9621 3.7975 37.5968 3.22327 36.1733 3.22327C36.1733 3.22327 38.224 3.46948 38.8954 4.76208C40.6286 8.11299 40.4565 13.436 13.5016 19.6602Z" fill="url(#paint2_linear_34_5)"/>
<path d="M44.999 22.9496C48.1769 17.565 51.3911 10.1467 48.0702 6.04974C45.971 3.46454 43.2077 2.17194 40.6722 1.54657C78.8695 6.5594 46.4219 48.4101 40.6843 55.1489C41.2458 54.2691 41.5439 53.2428 41.5424 52.1944V35.5875C41.5466 31.1347 42.7413 26.7666 44.999 22.9496Z" fill="url(#paint3_linear_34_5)"/>
<path d="M48.0702 6.04976C42.9144 -0.295068 33.7686 1.12556 33.7686 1.12556C54.438 3.69599 41.5448 18.4193 41.5448 18.4193L36.1975 23.8704L17.1934 43.1732C17.0334 43.3357 16.8758 43.5032 16.728 43.6657C14.6543 46.0035 13.5051 49.0378 13.5016 52.1845C13.5019 53.2988 13.8382 54.3862 14.4653 55.3005C15.0924 56.2147 15.9802 56.9119 17.0091 57.2983C17.3243 57.4165 37.6907 57.4165 38.0058 57.2983C39.0402 56.9168 39.9342 56.2216 40.5668 55.307C41.1993 54.3923 41.5399 53.3023 41.5424 52.1845V35.5875C41.5466 31.1347 42.7413 26.7666 44.999 22.9496C48.1768 17.565 51.3911 10.1368 48.0702 6.04976ZM27.4153 53.4156C27.0165 53.4156 26.6265 53.2954 26.2949 53.0703C25.9632 52.8453 25.7047 52.5253 25.5521 52.151C25.3995 51.7767 25.3595 51.3648 25.4373 50.9675C25.5152 50.5701 25.7072 50.2051 25.9893 49.9186C26.2713 49.6321 26.6307 49.437 27.0219 49.358C27.4131 49.279 27.8186 49.3195 28.1871 49.4746C28.5556 49.6296 28.8706 49.8922 29.0922 50.229C29.3138 50.5659 29.4321 50.962 29.4321 51.3671C29.4324 51.6362 29.3805 51.9027 29.2792 52.1514C29.178 52.4001 29.0295 52.626 28.8421 52.8163C28.6548 53.0066 28.4323 53.1575 28.1875 53.2603C27.9427 53.3631 27.6803 53.4159 27.4153 53.4156Z" fill="url(#paint4_linear_34_5)"/>
<path d="M40.6722 1.54657C38.699 1.31759 36.5514 1.17972 34.2001 1.14525H34.1056H33.7686C36.0751 0.865274 38.4122 1.00113 40.6722 1.54657Z" fill="url(#paint5_linear_34_5)"/>
<path style="mix-blend-mode:multiply" opacity="0.45" d="M41.5424 35.4792V18.4316L36.1975 23.8704L17.1934 43.1732C17.0334 43.3357 16.8758 43.5032 16.728 43.6657C14.6543 46.0035 13.5052 49.0378 13.5016 52.1845C13.5019 53.2988 13.8383 54.3862 14.4654 55.3005C15.0924 56.2147 15.9802 56.9119 17.0092 57.2983C17.0092 57.2983 5.68184 41.6886 41.5424 35.4792Z" fill="url(#paint6_linear_34_5)"/>
</g>
<path d="M81.92 43.4C77.08 43.28 73.24 40.48 73.16 35.24H77.84C77.92 37.56 79.84 38.72 81.92 38.72C84.08 38.72 86 37.36 86 35.16C86 32.8 83.8 31.32 81.92 31.24C81.68 31.24 79.76 31.24 77.72 30.32C74.8 28.96 73.16 26.48 73.16 23.16C73.16 17.84 77.4 14.6 81.92 14.6C86.76 14.6 90.48 17.88 90.56 22.64H85.92C85.84 20.32 84.04 19.28 81.92 19.28C79.72 19.28 77.84 20.56 77.84 23.16C77.84 25.48 79.84 26.72 81.92 26.72C82.12 26.72 84.08 26.72 86.08 27.64C89.04 29 90.64 31.84 90.64 35.16C90.64 40.52 86.44 43.4 81.92 43.4ZM109.679 43L104.319 31.32H100.519V43H95.8388V15H105.159C105.159 15 114.519 15 114.519 23.16C114.519 27.68 111.639 29.68 109.119 30.6L114.839 43H109.679ZM100.519 19.68V26.68H105.159C105.159 26.68 109.839 26.68 109.839 23.16C109.839 19.68 105.159 19.68 105.159 19.68H100.519ZM133.984 43L132.744 39.76H122.904L121.704 43H116.664L127.824 14.2L139.024 43H133.984ZM127.824 26L124.424 35.72H131.224L127.824 26ZM154.258 15H159.298L148.098 43.72L136.938 15H141.978L148.098 31.52L154.258 15ZM185.8 15V43H181.08L167.16 23.08V43H162.48V15H167.2L181.16 34.92V15H185.8ZM192.288 43V15H196.968V43H192.288ZM217.419 15V19.28H211.539V43H206.899V19.28H201.019V15H217.419ZM233.789 43L232.549 39.76H222.709L221.509 43H216.469L227.629 14.2L238.829 43H233.789ZM227.629 26L224.229 35.72H231.029L227.629 26ZM255.773 43L250.413 31.32H246.613V43H241.933V15H251.253C251.253 15 260.613 15 260.613 23.16C260.613 27.68 257.733 29.68 255.213 30.6L260.933 43H255.773ZM246.613 19.68V26.68H251.253C251.253 26.68 255.933 26.68 255.933 23.16C255.933 19.68 251.253 19.68 251.253 19.68H246.613ZM266.038 43V15H270.718V43H266.038ZM295.809 19.68H281.809V26.68H293.449V31.32H281.809V43H277.129V15H295.809V19.68ZM319.012 19.68H305.012V26.68H316.652V31.32H305.012V43H300.332V15H319.012V19.68ZM331.295 43.4C326.455 43.28 322.615 40.48 322.535 35.24H327.215C327.295 37.56 329.215 38.72 331.295 38.72C333.455 38.72 335.375 37.36 335.375 35.16C335.375 32.8 333.175 31.32 331.295 31.24C331.055 31.24 329.135 31.24 327.095 30.32C324.175 28.96 322.535 26.48 322.535 23.16C322.535 17.84 326.775 14.6 331.295 14.6C336.135 14.6 339.855 17.88 339.935 22.64H335.295C335.215 20.32 333.415 19.28 331.295 19.28C329.095 19.28 327.215 20.56 327.215 23.16C327.215 25.48 329.215 26.72 331.295 26.72C331.495 26.72 333.455 26.72 335.455 27.64C338.415 29 340.015 31.84 340.015 35.16C340.015 40.52 335.815 43.4 331.295 43.4Z" fill="#181818"/>
<defs>
<linearGradient id="paint0_linear_34_5" x1="0.00380398" y1="38.8357" x2="14.7909" y2="38.8357" gradientUnits="userSpaceOnUse">
<stop stop-color="#994FF3"/>
<stop offset="1" stop-color="#3126A4"/>
</linearGradient>
<linearGradient id="paint1_linear_34_5" x1="32.5969" y1="9.85555" x2="16.3242" y2="54.9514" gradientUnits="userSpaceOnUse">
<stop stop-color="#4FC4CF"/>
<stop offset="1" stop-color="#2AEDFF"/>
</linearGradient>
<linearGradient id="paint2_linear_34_5" x1="34.3553" y1="0.492802" x2="22.9073" y2="25.035" gradientUnits="userSpaceOnUse">
<stop stop-color="#4FC4CF"/>
<stop offset="0.38" stop-color="#74E5EF"/>
<stop offset="1" stop-color="white"/>
</linearGradient>
<linearGradient id="paint3_linear_34_5" x1="54.2223" y1="8.03666" x2="31.2787" y2="42.7451" gradientUnits="userSpaceOnUse">
<stop stop-color="#4FC4CF"/>
<stop offset="1" stop-color="#2AEDFF"/>
</linearGradient>
<linearGradient id="paint4_linear_34_5" x1="13.5113" y1="29.1984" x2="49.4713" y2="29.1984" gradientUnits="userSpaceOnUse">
<stop stop-color="#994FF3"/>
<stop offset="1" stop-color="#3126A4"/>
</linearGradient>
<linearGradient id="paint5_linear_34_5" x1="33.7705" y1="1.2752" x2="40.672" y2="1.2752" gradientUnits="userSpaceOnUse">
<stop stop-color="#994FF3"/>
<stop offset="1" stop-color="#3126A4"/>
</linearGradient>
<linearGradient id="paint6_linear_34_5" x1="29.8781" y1="33.4997" x2="26.6357" y2="46.2689" gradientUnits="userSpaceOnUse">
<stop stop-color="white"/>
<stop offset="1" stop-color="#994FF3"/>
</linearGradient>
<clipPath id="clip0_34_5">
<rect width="59" height="57" fill="white" transform="translate(0 1)"/>
</clipPath>
</defs>
</svg>
