<svg width="59" height="57" viewBox="0 0 59 57" fill="none" xmlns="http://www.w3.org/2000/svg">
<g clip-path="url(#clip0_34_7)">
<path d="M14.7912 56.9975C14.1222 56.771 -17.2952 45.9181 13.5113 18.6602V26.4749C13.5343 31.0349 12.2562 35.504 9.8317 39.3418C4.67829 47.3953 8.27549 52.4205 11.4582 54.9638H11.4727C12.4172 55.8085 13.5024 56.4755 14.6773 56.9335L14.7912 56.9975Z" fill="url(#paint0_linear_34_7)"/>
<path d="M37.7731 16.9195C38.9683 15.7055 39.9164 14.2641 40.5632 12.6778C41.2099 11.0915 41.5427 9.39131 41.5424 7.67436C41.543 6.95813 41.4045 6.2488 41.1349 5.58699C40.8653 4.92518 40.4698 4.32389 39.9711 3.81755C39.4723 3.31121 38.8802 2.90976 38.2285 2.63619C37.5768 2.36262 36.8784 2.22231 36.1732 2.22328H18.8804C18.1747 2.22166 17.4755 2.36146 16.823 2.63468C16.1704 2.9079 15.5774 3.30917 15.0778 3.81551C14.5781 4.32185 14.1817 4.92332 13.9113 5.58548C13.6408 6.24764 13.5016 6.95748 13.5016 7.67436V26.4749C13.5246 31.0349 12.2465 35.504 9.82199 39.3419C1.95128 51.6523 14.4906 56.8769 14.7912 57C4.25892 51.022 13.5016 41.5627 13.5016 41.5627L37.7731 16.9195ZM24.1672 4.97098H30.7629C30.9769 4.97098 31.1823 5.05736 31.3336 5.21112C31.485 5.36487 31.5701 5.57341 31.5701 5.79086C31.5701 6.0083 31.485 6.21684 31.3336 6.3706C31.1823 6.52436 30.9769 6.61074 30.7629 6.61074H24.1672C23.9535 6.60945 23.7489 6.52265 23.5978 6.36917C23.4467 6.21569 23.3613 6.0079 23.36 5.79086C23.36 5.57341 23.445 5.36487 23.5964 5.21112C23.7478 5.05736 23.9531 4.97098 24.1672 4.97098Z" fill="url(#paint1_linear_34_7)"/>
<path style="mix-blend-mode:multiply" d="M13.5016 18.6602V41.5577L37.7731 16.9195C38.9684 15.7055 39.9165 14.2641 40.5632 12.6778C41.21 11.0915 41.5427 9.3913 41.5424 7.67435C41.5418 6.22841 40.9758 4.84191 39.969 3.8197C38.9621 2.7975 37.5968 2.22327 36.1733 2.22327C36.1733 2.22327 38.224 2.46948 38.8954 3.76208C40.6286 7.11299 40.4565 12.436 13.5016 18.6602Z" fill="url(#paint2_linear_34_7)"/>
<path d="M44.999 21.9496C48.1769 16.565 51.3911 9.14667 48.0702 5.04974C45.971 2.46454 43.2077 1.17194 40.6722 0.54657C78.8695 5.5594 46.4219 47.4101 40.6843 54.1489C41.2458 53.2691 41.5439 52.2428 41.5424 51.1944V34.5875C41.5466 30.1347 42.7413 25.7666 44.999 21.9496Z" fill="url(#paint3_linear_34_7)"/>
<path d="M48.0702 5.04976C42.9144 -1.29507 33.7686 0.125562 33.7686 0.125562C54.438 2.69599 41.5448 17.4193 41.5448 17.4193L36.1975 22.8704L17.1934 42.1732C17.0334 42.3357 16.8758 42.5032 16.728 42.6657C14.6543 45.0035 13.5051 48.0378 13.5016 51.1845C13.5019 52.2988 13.8382 53.3862 14.4653 54.3005C15.0924 55.2147 15.9802 55.9119 17.0091 56.2983C17.3243 56.4165 37.6907 56.4165 38.0058 56.2983C39.0402 55.9168 39.9342 55.2216 40.5668 54.307C41.1993 53.3923 41.5399 52.3023 41.5424 51.1845V34.5875C41.5466 30.1347 42.7413 25.7666 44.999 21.9496C48.1768 16.565 51.3911 9.13684 48.0702 5.04976ZM27.4153 52.4156C27.0165 52.4156 26.6265 52.2954 26.2949 52.0703C25.9632 51.8453 25.7047 51.5253 25.5521 51.151C25.3995 50.7767 25.3595 50.3648 25.4373 49.9675C25.5152 49.5701 25.7072 49.2051 25.9893 48.9186C26.2713 48.6321 26.6307 48.437 27.0219 48.358C27.4131 48.279 27.8186 48.3195 28.1871 48.4746C28.5556 48.6296 28.8706 48.8922 29.0922 49.229C29.3138 49.5659 29.4321 49.962 29.4321 50.3671C29.4324 50.6362 29.3805 50.9027 29.2792 51.1514C29.178 51.4001 29.0295 51.626 28.8421 51.8163C28.6548 52.0066 28.4323 52.1575 28.1875 52.2603C27.9427 52.3631 27.6803 52.4159 27.4153 52.4156Z" fill="url(#paint4_linear_34_7)"/>
<path d="M40.6722 0.546569C38.699 0.317594 36.5514 0.179716 34.2001 0.145246H34.1056H33.7686C36.0751 -0.134726 38.4122 0.00113451 40.6722 0.546569Z" fill="url(#paint5_linear_34_7)"/>
<path style="mix-blend-mode:multiply" opacity="0.45" d="M41.5424 34.4792V17.4316L36.1975 22.8704L17.1934 42.1732C17.0334 42.3357 16.8758 42.5032 16.728 42.6657C14.6543 45.0035 13.5052 48.0378 13.5016 51.1845C13.5019 52.2988 13.8383 53.3862 14.4654 54.3005C15.0924 55.2147 15.9802 55.9119 17.0092 56.2983C17.0092 56.2983 5.68184 40.6886 41.5424 34.4792Z" fill="url(#paint6_linear_34_7)"/>
</g>
<defs>
<linearGradient id="paint0_linear_34_7" x1="0.00380398" y1="37.8357" x2="14.7909" y2="37.8357" gradientUnits="userSpaceOnUse">
<stop stop-color="#994FF3"/>
<stop offset="1" stop-color="#3126A4"/>
</linearGradient>
<linearGradient id="paint1_linear_34_7" x1="32.5969" y1="8.85555" x2="16.3242" y2="53.9514" gradientUnits="userSpaceOnUse">
<stop stop-color="#4FC4CF"/>
<stop offset="1" stop-color="#2AEDFF"/>
</linearGradient>
<linearGradient id="paint2_linear_34_7" x1="34.3553" y1="-0.507198" x2="22.9073" y2="24.035" gradientUnits="userSpaceOnUse">
<stop stop-color="#4FC4CF"/>
<stop offset="0.38" stop-color="#74E5EF"/>
<stop offset="1" stop-color="white"/>
</linearGradient>
<linearGradient id="paint3_linear_34_7" x1="54.2223" y1="7.03666" x2="31.2787" y2="41.7451" gradientUnits="userSpaceOnUse">
<stop stop-color="#4FC4CF"/>
<stop offset="1" stop-color="#2AEDFF"/>
</linearGradient>
<linearGradient id="paint4_linear_34_7" x1="13.5113" y1="28.1984" x2="49.4713" y2="28.1984" gradientUnits="userSpaceOnUse">
<stop stop-color="#994FF3"/>
<stop offset="1" stop-color="#3126A4"/>
</linearGradient>
<linearGradient id="paint5_linear_34_7" x1="33.7705" y1="0.275198" x2="40.672" y2="0.275198" gradientUnits="userSpaceOnUse">
<stop stop-color="#994FF3"/>
<stop offset="1" stop-color="#3126A4"/>
</linearGradient>
<linearGradient id="paint6_linear_34_7" x1="29.8781" y1="32.4997" x2="26.6357" y2="45.2689" gradientUnits="userSpaceOnUse">
<stop stop-color="white"/>
<stop offset="1" stop-color="#994FF3"/>
</linearGradient>
<clipPath id="clip0_34_7">
<rect width="59" height="57" fill="white"/>
</clipPath>
</defs>
</svg>
